<svg xmlns="http://www.w3.org/2000/svg" viewBox="0 0 32 32">
  <rect width="32" height="32" rx="7" fill="#1B2E27"/>
  <path transform="translate(4 4)" d="M12 2C12 2 8 6.5 8 9.2C8 10.4 8.8 11.2 9.8 11.2C9.2 12.6 8.2 13.6 6.6 14.6C6.2 14.85 6.35 15.45 6.8 15.45H10.6L9.3 20.8C9.15 21.4 9.9 21.75 10.3 21.3L12 19.3L13.7 21.3C14.1 21.75 14.85 21.4 14.7 20.8L13.4 15.45H17.2C17.65 15.45 17.8 14.85 17.4 14.6C15.8 13.6 14.8 12.6 14.2 11.2C15.2 11.2 16 10.4 16 9.2C16 6.5 12 2 12 2Z" fill="#C9883E"/>
</svg>
